<svg xmlns="http://www.w3.org/2000/svg" viewBox="0 0 80 16" preserveAspectRatio="none"><defs><style>.cls-1{fill:#666;}</style></defs><title>pc</title><g id="graphic"><path class="cls-1" d="M37.43,4.26C32.94-.39,29.29-.55,26.76.84a6.52,6.52,0,0,0-3.13,4.43c0,.26,0,.32.12-.06A6.21,6.21,0,0,1,27,1.08C29,.23,32.37-.17,37.36,5.4"/><path class="cls-1" d="M43.24,11.74c4.48,4.65,8.14,4.81,10.66,3.42A6.51,6.51,0,0,0,57,10.73c0-.26,0-.32-.12.06a6.2,6.2,0,0,1-3.28,4.13c-2,.86-5.34,1.25-10.33-4.31"/><path class="cls-1" d="M6.63,4,6.34,4a4.2,4.2,0,0,1-.75.05h-4c-.13,0-.53,0-.84-.05A1.77,1.77,0,0,1,.34,3.9S.25,4,.23,4.1,0,5.1,0,5.2s0,.1.05.1.08,0,.11-.1a1.67,1.67,0,0,1,.18-.33c.16-.25.42-.33,1.07-.34L3,4.5V9c0,1,0,1.85-.05,2.29s-.1.54-.31.58a1.57,1.57,0,0,1-.31,0c-.06,0-.09,0-.09.06s.05.08.17.08l1,0c.05,0,.72,0,1.3,0,.12,0,.17,0,.17-.08s0-.06-.08-.06l-.48,0c-.32,0-.38-.27-.41-.58s0-1.28,0-2.29V4.5l1.33,0c1,0,1.26.26,1.3.58v.12c0,.15,0,.18.09.18s.07,0,.07-.14,0-.84,0-1.16c0-.06,0-.12,0-.12"/><path class="cls-1" d="M29.19,11.88l-.48,0c-.32,0-.38-.27-.41-.58s0-1.28,0-2.29V7.11c0-1.65,0-1.95,0-2.28s.11-.55.39-.6l.27,0s.09,0,.09-.06-.05-.08-.17-.08l-1,0c-.05,0-.72,0-1.07,0-.12,0-.17,0-.17.08s0,.06.09.06a1.3,1.3,0,0,1,.32,0c.23.05.34.23.36.59s0,.63,0,2.28V9c0,1,0,1.85-.05,2.29s-.09.54-.31.58a1.57,1.57,0,0,1-.31,0c-.06,0-.09,0-.09.06s.05.08.17.08l1,0c.05,0,.72,0,1.3,0,.12,0,.17,0,.17-.08s0-.06-.08-.06"/><path class="cls-1" d="M44.37,4.05c-.44,0-.78,0-.9,0s-.62,0-1.1,0c-.13,0-.21,0-.21.07s0,.07.08.07a2.53,2.53,0,0,1,.52.06c.33.08.4.31.41,1l.12,5.36C43,10.26,41.81,9,40.76,7.86c-1.62-1.74-3.2-3.44-3.35-3.62A.7.7,0,0,0,37,4.06c-.08,0-.11,0-.11.38l0,6c0,1,0,1.27-.31,1.34a1.66,1.66,0,0,1-.43.06c-.05,0-.08,0-.08.06s.06.08.16.08c.48,0,.92,0,1,0s.52,0,1.12,0c.13,0,.19,0,.19-.08s0-.06-.08-.06a2.51,2.51,0,0,1-.53-.06c-.28-.09-.39-.36-.41-1.23l-.13-5.05c.34.38,1.53,1.71,2.75,3s2.64,2.75,2.75,2.86c.56.55.69.67.77.67s.09-.05.09-.75l0-6.18c0-.63,0-.86.39-.94a.91.91,0,0,1,.25,0c.08,0,.12,0,.12-.07s-.07-.07-.19-.07"/><path class="cls-1" d="M54.21,11.88l-.47,0c-.32,0-.38-.27-.41-.58S53.27,10,53.27,9V7.11c0-1.65,0-1.95,0-2.28s.1-.55.39-.6l.27,0s.08,0,.08-.06-.05-.08-.17-.08l-1,0c-.05,0-.72,0-1.07,0-.12,0-.17,0-.17.08s0,.06.08.06a1.29,1.29,0,0,1,.33,0c.23.05.34.23.36.59s0,.63,0,2.28V9c0,1,0,1.85-.05,2.29s-.09.54-.3.58a1.58,1.58,0,0,1-.32,0c-.07,0-.08,0-.08.06s0,.08.16.08l1,0c.05,0,.71,0,1.3,0,.11,0,.17,0,.17-.08s0-.06-.08-.06"/><path class="cls-1" d="M67.18,4l-.3,0a4.07,4.07,0,0,1-.75.05h-4c-.12,0-.52,0-.83-.05a1.87,1.87,0,0,1-.47-.13s-.08.14-.1.2-.23,1-.23,1.1,0,.1.05.1.07,0,.1-.1a1.66,1.66,0,0,1,.18-.33c.17-.25.42-.33,1.08-.34l1.56,0V9c0,1,0,1.85-.05,2.29s-.09.54-.3.58a1.62,1.62,0,0,1-.32,0c-.06,0-.08,0-.08.06s.05.08.17.08l1,0c.05,0,.72,0,1.3,0,.12,0,.17,0,.17-.08s0-.06-.09-.06l-.47,0c-.31,0-.38-.27-.41-.58S64.41,10,64.41,9V4.5l1.33,0c1,0,1.27.26,1.3.58v.12c0,.15,0,.18.08.18s.08,0,.08-.14,0-.84,0-1.16c0-.06,0-.12-.05-.12"/><path class="cls-1" d="M79.86,4.05l-1,0c-.09,0-.42,0-.7,0-.11,0-.17,0-.17.06s.06.08.16.11.17.15.17.29a1,1,0,0,1-.18.54c-.21.35-1.55,2.66-1.75,3.1-.19-.3-1.77-3-1.94-3.33a.91.91,0,0,1-.14-.41.21.21,0,0,1,.14-.19c.09,0,.16-.05.16-.1s0-.07-.14-.07c-.41,0-.81,0-.88,0l-1,0c-.1,0-.13,0-.13.07s.05.07.1.07a1,1,0,0,1,.46.17,2.89,2.89,0,0,1,.72.78c.37.55,1.78,2.87,1.86,3a2.29,2.29,0,0,1,.24,1.11v.91c0,.17,0,.61,0,1.06s-.12.54-.33.58a1.6,1.6,0,0,1-.32,0c-.06,0-.08,0-.08.06s.05.08.17.08l1,0c.05,0,.71,0,1.3,0,.12,0,.17,0,.17-.08s0-.06-.08-.06l-.47,0c-.32,0-.41-.27-.44-.58s0-.88,0-1.06V9.29a2.49,2.49,0,0,1,.16-1.05,34.75,34.75,0,0,1,2-3.35,2,2,0,0,1,.56-.54,1,1,0,0,1,.48-.15c.09,0,.14,0,.14-.08s-.07-.06-.14-.06"/><path class="cls-1" d="M16,8.57V8.4c0-.06,0-.08.1-.08h.13a1.34,1.34,0,0,0,.79-.2,1.92,1.92,0,0,0,.64-1.62c0-1.32-.7-2.11-1.82-2.11a3.19,3.19,0,0,0-.71.06.14.14,0,0,0-.08.13V9c0,1,0,1.85.05,2.29s.1.54.41.58l.48,0c.06,0,.08,0,.08.06S16,12,15.86,12c-.58,0-1.24,0-1.3,0s-.68,0-1,0c-.12,0-.17,0-.17-.08s0-.06.08-.06a1.67,1.67,0,0,0,.32,0c.21,0,.26-.27.31-.58S14.16,10,14.16,9V7.11c0-1.65,0-1.95,0-2.28s-.11-.53-.45-.6a2,2,0,0,0-.36,0s-.09,0-.09-.06.05-.08.17-.08c.47,0,1.14,0,1.19,0l1.25,0a3.24,3.24,0,0,1,1.93.46,1.86,1.86,0,0,1,.73,1.43,3.25,3.25,0,0,1-1.28,2.44c.87,1.11,1.58,2,2.19,2.7a2.21,2.21,0,0,0,1.29.76,2.39,2.39,0,0,0,.41,0s.1,0,.1.06S21.15,12,21,12h-.75a2.11,2.11,0,0,1-1.13-.2,5.43,5.43,0,0,1-1.42-1.55c-.32-.42-.66-.9-.91-1.24h0a.76.76,0,0,0-.7-.39c-.07,0-.09,0-.09-.08"/></g></svg>